<mxfile host="app.diagrams.net" modified="2023-05-27T23:23:41.539Z" agent="Mozilla/5.0 (Windows NT 10.0; Win64; x64) AppleWebKit/537.36 (KHTML, like Gecko) Chrome/112.0.0.0 Safari/537.36 OPR/98.0.0.0" etag="LNcdgrNSRDtXCbSIDAXl" version="21.3.4" type="device">
  <diagram id="C5RBs43oDa-KdzZeNtuy" name="Page-1">
    <mxGraphModel dx="1406" dy="623" grid="1" gridSize="10" guides="1" tooltips="1" connect="1" arrows="1" fold="1" page="1" pageScale="1" pageWidth="827" pageHeight="1169" math="0" shadow="0">
      <root>
        <mxCell id="WIyWlLk6GJQsqaUBKTNV-0" />
        <mxCell id="WIyWlLk6GJQsqaUBKTNV-1" parent="WIyWlLk6GJQsqaUBKTNV-0" />
        <mxCell id="RrAi2AV_v1FRfSW-xn6L-0" value="Open CSV File&lt;br&gt;&lt;br&gt;&#39;addroads.csv&#39;" style="rounded=1;whiteSpace=wrap;html=1;fontSize=12;glass=0;strokeWidth=1;shadow=0;" vertex="1" parent="WIyWlLk6GJQsqaUBKTNV-1">
          <mxGeometry x="80" y="90" width="120" height="120" as="geometry" />
        </mxCell>
        <mxCell id="RrAi2AV_v1FRfSW-xn6L-1" value="Define&amp;nbsp;&lt;br&gt;Vortex1 &amp;amp; Vortex2&lt;br&gt;" style="rounded=1;whiteSpace=wrap;html=1;fontSize=12;glass=0;strokeWidth=1;shadow=0;" vertex="1" parent="WIyWlLk6GJQsqaUBKTNV-1">
          <mxGeometry x="300" y="90" width="120" height="120" as="geometry" />
        </mxCell>
        <mxCell id="RrAi2AV_v1FRfSW-xn6L-2" value="Define&amp;nbsp;distance =&lt;br&gt;haversine (Vortex1 long &amp;amp; Latit,Vortex2 long &amp;amp; Latit&lt;br&gt;)" style="rounded=1;whiteSpace=wrap;html=1;fontSize=12;glass=0;strokeWidth=1;shadow=0;" vertex="1" parent="WIyWlLk6GJQsqaUBKTNV-1">
          <mxGeometry x="520" y="90" width="120" height="120" as="geometry" />
        </mxCell>
        <mxCell id="RrAi2AV_v1FRfSW-xn6L-3" value="Append adj_list&lt;br&gt;&lt;br&gt;adj_list[vertex1].append((vertex2, distance))&amp;nbsp;" style="rounded=1;whiteSpace=wrap;html=1;fontSize=12;glass=0;strokeWidth=1;shadow=0;" vertex="1" parent="WIyWlLk6GJQsqaUBKTNV-1">
          <mxGeometry x="270" y="340" width="190" height="120" as="geometry" />
        </mxCell>
        <mxCell id="RrAi2AV_v1FRfSW-xn6L-4" value="Append adj_list&lt;br&gt;&lt;br&gt;adj_list[vertex2].append((vertex1, distance))" style="rounded=1;whiteSpace=wrap;html=1;fontSize=12;glass=0;strokeWidth=1;shadow=0;" vertex="1" parent="WIyWlLk6GJQsqaUBKTNV-1">
          <mxGeometry x="540" y="340" width="190" height="120" as="geometry" />
        </mxCell>
        <mxCell id="RrAi2AV_v1FRfSW-xn6L-5" value="" style="endArrow=classic;html=1;rounded=0;entryX=0.5;entryY=0;entryDx=0;entryDy=0;" edge="1" parent="WIyWlLk6GJQsqaUBKTNV-1" source="RrAi2AV_v1FRfSW-xn6L-2" target="RrAi2AV_v1FRfSW-xn6L-3">
          <mxGeometry width="50" height="50" relative="1" as="geometry">
            <mxPoint x="390" y="240" as="sourcePoint" />
            <mxPoint x="570" y="260" as="targetPoint" />
          </mxGeometry>
        </mxCell>
        <mxCell id="RrAi2AV_v1FRfSW-xn6L-6" value="" style="endArrow=classic;html=1;rounded=0;entryX=0;entryY=0.5;entryDx=0;entryDy=0;" edge="1" parent="WIyWlLk6GJQsqaUBKTNV-1" source="RrAi2AV_v1FRfSW-xn6L-1" target="RrAi2AV_v1FRfSW-xn6L-2">
          <mxGeometry width="50" height="50" relative="1" as="geometry">
            <mxPoint x="390" y="240" as="sourcePoint" />
            <mxPoint x="440" y="190" as="targetPoint" />
          </mxGeometry>
        </mxCell>
        <mxCell id="RrAi2AV_v1FRfSW-xn6L-7" value="" style="endArrow=classic;html=1;rounded=0;entryX=0;entryY=0.5;entryDx=0;entryDy=0;" edge="1" parent="WIyWlLk6GJQsqaUBKTNV-1" source="RrAi2AV_v1FRfSW-xn6L-0" target="RrAi2AV_v1FRfSW-xn6L-1">
          <mxGeometry width="50" height="50" relative="1" as="geometry">
            <mxPoint x="390" y="240" as="sourcePoint" />
            <mxPoint x="290" y="150" as="targetPoint" />
          </mxGeometry>
        </mxCell>
        <mxCell id="RrAi2AV_v1FRfSW-xn6L-10" value="" style="endArrow=classic;html=1;rounded=0;exitX=0.446;exitY=1.013;exitDx=0;exitDy=0;exitPerimeter=0;entryX=0.467;entryY=-0.026;entryDx=0;entryDy=0;entryPerimeter=0;" edge="1" parent="WIyWlLk6GJQsqaUBKTNV-1" source="RrAi2AV_v1FRfSW-xn6L-2" target="RrAi2AV_v1FRfSW-xn6L-4">
          <mxGeometry width="50" height="50" relative="1" as="geometry">
            <mxPoint x="390" y="240" as="sourcePoint" />
            <mxPoint x="440" y="190" as="targetPoint" />
          </mxGeometry>
        </mxCell>
        <mxCell id="RrAi2AV_v1FRfSW-xn6L-11" value="For loop in range(Number of rows)" style="swimlane;whiteSpace=wrap;html=1;" vertex="1" parent="WIyWlLk6GJQsqaUBKTNV-1">
          <mxGeometry x="250" y="50" width="550" height="450" as="geometry" />
        </mxCell>
      </root>
    </mxGraphModel>
  </diagram>
</mxfile>
